<svg width="169" height="32" viewBox="0 0 169 32" fill="none" xmlns="http://www.w3.org/2000/svg">
<path d="M48.4066 18.7068H53.6999C53.4299 19.9421 52.7425 21.0467 51.7534 21.8346C50.7878 22.5958 49.5903 23.0026 48.3609 22.9871C47.5936 23.0077 46.8307 22.8654 46.1223 22.5697C45.414 22.274 44.7764 21.8316 44.2514 21.2716C43.7156 20.7104 43.2959 20.049 43.0164 19.3252C42.7368 18.6014 42.603 17.8295 42.6226 17.0538C42.6039 16.2763 42.74 15.5028 43.0229 14.7783C43.3059 14.0538 43.73 13.3928 44.2707 12.8337C44.7938 12.2766 45.4284 11.8359 46.1331 11.5404C46.8378 11.2448 47.5969 11.1009 48.3609 11.1182C49.2235 11.0981 50.0775 11.2924 50.8464 11.6838C51.6153 12.0752 52.275 12.6514 52.7663 13.3606H56.0048C55.3546 11.9133 54.3213 10.6712 53.0166 9.76842C51.6502 8.82203 50.0229 8.325 48.3609 8.34647C47.2225 8.32975 46.0928 8.54804 45.0425 8.98769C43.9922 9.42734 43.0439 10.0789 42.2569 10.9017C41.4397 11.7017 40.7941 12.6598 40.3593 13.7175C39.9246 14.7752 39.7098 15.9104 39.7281 17.0538C39.7101 18.1962 39.9238 19.3303 40.3563 20.3877C40.7889 21.4451 41.4313 22.4039 42.2448 23.206C43.0333 24.0301 43.9836 24.6822 45.0361 25.1215C46.0886 25.5608 47.2206 25.7778 48.3609 25.7588C50.7108 25.7588 52.6605 24.9568 54.2099 23.3528C55.7594 21.7488 56.5366 19.7301 56.5414 17.2968V16.2502H48.3609L48.4066 18.7068Z" fill="#0C0C14"/>
<path d="M78.2701 12.4559C77.3995 12.4569 76.5377 12.6295 75.734 12.9639C74.9302 13.2982 74.2003 13.7878 73.5859 14.4046C72.9716 15.0214 72.4849 15.7533 72.1537 16.5584C71.8226 17.3635 71.6534 18.226 71.6559 19.0965C71.644 19.9679 71.8083 20.8327 72.1391 21.639C72.4699 22.4453 72.9603 23.1763 73.5808 23.7883C74.1901 24.4103 74.9174 24.9044 75.7202 25.2418C76.5229 25.5791 77.3849 25.7529 78.2556 25.7529C79.1264 25.7529 79.9884 25.5791 80.7911 25.2418C81.5938 24.9044 82.3212 24.4103 82.9305 23.7883C84.1739 22.5442 84.8734 20.8579 84.8757 19.099C84.8779 17.3401 84.1828 15.6521 82.9426 14.4048C82.3395 13.7763 81.6133 13.2789 80.8094 12.9435C80.0054 12.6082 79.141 12.4422 78.2701 12.4559ZM81.114 21.9765C80.7444 22.3573 80.3021 22.66 79.8134 22.8667C79.3247 23.0734 78.7995 23.1799 78.2689 23.1799C77.7382 23.1799 77.213 23.0734 76.7243 22.8667C76.2356 22.66 75.7934 22.3573 75.4238 21.9765C74.6718 21.2035 74.2511 20.1677 74.2511 19.0893C74.2511 18.0109 74.6718 16.9751 75.4238 16.2021C75.7934 15.8214 76.2356 15.5187 76.7243 15.312C77.213 15.1053 77.7382 14.9988 78.2689 14.9988C78.7995 14.9988 79.3247 15.1053 79.8134 15.312C80.3021 15.5187 80.7444 15.8214 81.114 16.2021C81.8659 16.9751 82.2866 18.0109 82.2866 19.0893C82.2866 20.1677 81.8659 21.2035 81.114 21.9765Z" fill="#0C0C14"/>
<path d="M92.4463 18.0259C92.2683 17.9777 92.0373 17.9248 91.7534 17.8671C91.4695 17.8117 91.2505 17.7612 91.0966 17.7203C90.9426 17.6794 90.7573 17.6361 90.5384 17.588C90.3641 17.5521 90.1928 17.503 90.0259 17.4412C89.9056 17.3931 89.7684 17.3401 89.6144 17.2848C89.488 17.242 89.3688 17.1804 89.2608 17.102C89.179 17.037 89.0996 16.9672 89.0202 16.895C88.942 16.8263 88.8832 16.7384 88.8493 16.64C88.8169 16.5373 88.8006 16.4301 88.8012 16.3224C88.8063 16.1007 88.8726 15.8847 88.9928 15.6983C89.1129 15.5119 89.2823 15.3624 89.4821 15.2662C90.0113 14.9792 90.6081 14.8404 91.2096 14.8644C92.7334 14.8644 94.3864 15.3913 96.1684 16.4451V13.8683C94.4682 12.9267 92.8153 12.4559 91.2096 12.4559C89.7323 12.4559 88.4916 12.8008 87.4875 13.4905C87.0132 13.7922 86.6251 14.2116 86.3612 14.7079C86.0972 15.2042 85.9663 15.7605 85.9814 16.3224C85.9629 16.78 86.0562 17.2351 86.2532 17.6485C86.4503 18.0619 86.7451 18.421 87.1122 18.6947C87.8645 19.269 89.0354 19.7269 90.625 20.0686C91.8264 20.3284 92.6773 20.5915 93.1778 20.8577C93.6806 21.1248 93.9332 21.4713 93.9332 21.8923C93.9306 22.1115 93.8665 22.3256 93.7483 22.5102C93.63 22.6948 93.4624 22.8425 93.2644 22.9365C92.7376 23.2207 92.1446 23.3594 91.5465 23.3383C90.5303 23.329 89.5276 23.1051 88.6039 22.6815C87.7381 22.3157 86.9281 21.8297 86.1979 21.2379V24.1251C88.012 25.2094 89.7949 25.7524 91.5465 25.754C92.9901 25.754 94.2139 25.4332 95.2181 24.7916C96.2222 24.15 96.725 23.1876 96.7266 21.9044C96.7388 21.4559 96.6564 21.0098 96.4848 20.5953C96.3132 20.1807 96.0562 19.807 95.7305 19.4983C95.0649 18.8728 93.9701 18.382 92.4463 18.0259Z" fill="#0C0C14"/>
<path d="M121.602 8.54135H116.692V10.8511H114.214V25.5615H117.101V19.9002L121.6 19.8737C122.357 19.8894 123.11 19.7519 123.813 19.4695C124.516 19.1872 125.154 18.7657 125.69 18.2304C126.22 17.7108 126.637 17.088 126.916 16.4006C127.195 15.7131 127.33 14.9757 127.312 14.234C127.325 13.4877 127.188 12.7464 126.908 12.0546C126.627 11.3629 126.21 10.735 125.681 10.2087C125.153 9.66354 124.519 9.23382 123.817 8.9468C123.115 8.65978 122.361 8.52171 121.602 8.54135ZM123.669 16.3609C123.379 16.6658 123.027 16.9051 122.637 17.0628C122.247 17.2205 121.828 17.2929 121.407 17.2752L117.103 17.2968V11.1663L121.407 11.1447C122.37 11.1447 123.128 11.4286 123.681 11.9964C123.959 12.2773 124.177 12.6118 124.321 12.9795C124.465 13.3472 124.533 13.7405 124.521 14.1353C124.542 14.9605 124.236 15.7605 123.669 16.3609Z" fill="#0C0C14"/>
<path d="M131.84 11.277H129.044V25.5639H131.84V11.277Z" fill="#0C0C14"/>
<path d="M146.31 12.6749H143.22L139.939 17.588L136.654 12.6749H133.565L137.749 19.1206L133.565 25.5639H136.654L139.939 20.6268L143.22 25.5639H146.31L142.126 19.1206L146.31 12.6749Z" fill="#0C0C14"/>
<path d="M156.68 14.0247C155.716 13.2122 154.54 12.6924 153.291 12.5268C152.042 12.3611 150.771 12.5565 149.629 13.0899C148.488 13.6232 147.522 14.4722 146.847 15.5366C146.173 16.601 145.817 17.8363 145.821 19.0965C145.808 19.9699 145.972 20.837 146.302 21.6454C146.633 22.4538 147.124 23.1869 147.746 23.8003C148.35 24.434 149.079 24.9353 149.886 25.2725C150.694 25.6096 151.563 25.7752 152.438 25.7588C153.69 25.7574 154.921 25.4352 156.013 24.8229C157.078 24.2685 157.945 23.3977 158.494 22.3302L156.013 21.6734C155.121 22.7272 153.93 23.2541 152.438 23.2541C151.523 23.2737 150.63 22.9771 149.909 22.4144C149.195 21.8535 148.725 21.0393 148.595 20.1408H158.956C159.101 19.4173 159.093 18.6713 158.932 17.9513C158.676 16.4147 157.877 15.0212 156.68 14.0247ZM148.593 17.9777C148.755 17.1267 149.211 16.3599 149.883 15.8123C150.6 15.2396 151.491 14.9276 152.409 14.9276C153.327 14.9276 154.218 15.2396 154.935 15.8123C155.603 16.3607 156.056 17.1278 156.213 17.9777H148.593Z" fill="#0C0C14"/>
<path d="M101.183 8.54135H98.4325L98.4036 23.0809H100.932V25.5615H105.121V22.7874H101.168L101.183 15.0833H105.121V12.6773H101.183V8.54135Z" fill="#0C0C14"/>
<path d="M134.648 8.4812H131.852V11.277H134.648V8.4812Z" fill="#0C0C14"/>
<path d="M163.453 25.5615V8.54135H160.654V25.5639H163.453V28.2707H166.248V25.5615H163.453Z" fill="#0C0C14"/>
<path d="M67.366 13.7311H60.8577V8.54135H58.062V25.5639H60.8577L60.8794 16.5293H67.1182V25.5639H69.9164V16.2117H67.366V13.7311Z" fill="#0C0C14"/>
<path d="M14.6767 15.9519H17.3474V10.6105H14.6767V15.9519Z" fill="#0C0C14"/>
<path d="M19.9892 15.9519H22.6599V10.6105H19.9892V15.9519Z" fill="#0C0C14"/>
<path d="M25.8719 7.98797V5.85624H23.7425V3.72932H13.0598V5.86105H10.9305V7.99038H8.80119V19.212H6.67187V21.3414H5.0839V19.212H2.40601V21.8947H4.53533V24.012H6.66465V26.1414H8.79398V28.2707H23.7353V26.1414H25.8647V24.0144H27.994V7.98797H25.8719ZM25.3305 23.4707H23.2012V25.6H9.34255V23.4707H7.21804V21.8947H9.34736V19.7534H11.4767V8.53173H13.606V6.4H23.206V8.52932H25.3353L25.3305 23.4707Z" fill="#0C0C14"/>
</svg>
