<svg width="32" height="32" viewBox="0 0 32 32" fill="none" xmlns="http://www.w3.org/2000/svg">
<path d="M15.2707 16.2226H17.9414V10.8812H15.2707V16.2226Z" fill="#0C0C14"/>
<path d="M20.5831 16.2226H23.2538V10.8812H20.5831V16.2226Z" fill="#0C0C14"/>
<path d="M26.4659 8.25865V6.12692H24.3365V4H13.6538V6.13173H11.5245V8.26105H9.39519V19.4827H7.26586V21.612H5.67789V19.4827H3V22.1654H5.12932V24.2827H7.25865V26.412H9.38797V28.5414H24.3293V26.412H26.4586V24.2851H28.588V8.25865H26.4659ZM25.9245 23.7414H23.7952V25.8707H9.93654V23.7414H7.81203V22.1654H9.94135V20.0241H12.0707V8.80241H14.2V6.67068H23.8V8.8H25.9293L25.9245 23.7414Z" fill="#0C0C14"/>
</svg>
